<svg width="221" height="201" viewBox="0 0 221 201" fill="none" xmlns="http://www.w3.org/2000/svg">
<path d="M99.8203 189C66.6832 189 39.8203 162.137 39.8203 129C39.8203 95.8629 66.6832 69 99.8203 69" stroke="#222222" stroke-width="9" stroke-linecap="round"/>
<path d="M85.8186 64C52.6815 64 31.168 84.5259 23.8198 114C17.2624 140.303 24.5186 168.3 47.3186 179.5" stroke="#222222" stroke-width="9" stroke-linecap="round"/>
<path d="M84.8182 57C42.2923 57 17.5977 72.5056 7.8182 107C2.85477 124.507 4.81726 137.5 10.8182 153.5" stroke="#222222" stroke-width="9" stroke-linecap="round"/>
<path d="M120.82 189C153.957 189 180.82 162.137 180.82 129C180.82 95.8629 153.957 69 120.82 69" stroke="#222222" stroke-width="9" stroke-linecap="round"/>
<path d="M134.822 64C167.959 64 189.473 84.5259 196.821 114C203.378 140.303 196.122 168.3 173.322 179.5" stroke="#222222" stroke-width="9" stroke-linecap="round"/>
<path d="M135.822 57C178.348 57 203.043 72.5056 212.822 107C217.786 124.507 215.823 137.5 209.822 153.5" stroke="#222222" stroke-width="9" stroke-linecap="round"/>
<path d="M54.189 139.419C54.8625 136.292 69.6237 94.6882 76.9201 74.2771L82.3908 69.5L85.7584 79.4884C79.8652 95.991 67.7419 129.865 66.3949 133.339C65.0479 136.813 66.3949 137.103 67.2368 136.813C74.6735 128.707 90.473 111.364 94.1773 106.848C97.8816 102.331 101.053 104.966 102.175 106.848L108.91 115.968C109.752 117.705 110.594 121.613 107.227 123.351C103.017 125.522 99.2287 117.271 96.703 117.705C94.1773 118.139 75.2363 145.065 65.1336 149.842C55.0309 154.619 53.3471 143.327 54.189 139.419Z" fill="#222222"/>
<path d="M166.811 139.419C166.137 136.292 151.376 94.6882 144.08 74.2771L138.609 69.5L135.242 79.4884C141.135 95.991 153.258 129.865 154.605 133.339C155.952 136.813 154.605 137.103 153.763 136.813C146.327 128.707 130.527 111.364 126.823 106.848C123.118 102.331 119.947 104.966 118.825 106.848L112.09 115.968C111.248 117.705 110.406 121.613 113.773 123.351C117.983 125.522 121.771 117.271 124.297 117.705C126.823 118.139 145.764 145.065 155.866 149.842C165.969 154.619 167.653 143.327 166.811 139.419Z" fill="#222222"/>
<path d="M170 54C170 83.8234 143.137 78 110 78C76.8629 78 50 83.8234 50 54C50 24.1766 76.8629 0 110 0C143.137 0 170 24.1766 170 54Z" fill="#565656"/>
<path fill-rule="evenodd" clip-rule="evenodd" d="M139.269 83.9158C142.404 78.9236 144.868 71.7021 146 61.374C146 40.7329 129.882 24 110 24C90.1177 24 74 40.7329 74 61.374C75.1051 72.579 77.8386 80.1276 81.3341 85.1398C86.9028 96.2429 96.8897 102.496 102.52 96C103.153 95.2695 103.639 94.5486 103.997 93.8445C107.585 93.1499 110 92 110 92C110 92 112.427 93.1746 116.033 93.8666C116.391 94.5637 116.874 95.2772 117.5 96C123.237 102.62 133.499 96 138.999 84.5C139.09 84.3084 139.18 84.1137 139.269 83.9158Z" fill="#222222"/>
<circle cx="110.5" cy="163.5" r="30.5" fill="white"/>
<g clip-path="url(#clip0_1_85)">
<path fill-rule="evenodd" clip-rule="evenodd" d="M110 133.167C127.029 133.167 140.833 146.971 140.833 164C140.833 181.029 127.029 194.833 110 194.833C92.9708 194.833 79.1667 181.029 79.1667 164C79.1667 146.971 92.9708 133.167 110 133.167ZM114.57 179.232C111.528 179.48 108.472 179.48 105.431 179.232C105.717 180.456 106.038 181.59 106.386 182.63C107.16 184.957 108.021 186.616 108.822 187.631C109.214 188.13 109.531 188.395 109.747 188.525L109.904 188.611L109.997 188.636L110.096 188.611L110.253 188.528C110.611 188.286 110.924 187.983 111.178 187.634C111.98 186.616 112.84 184.957 113.614 182.63C113.962 181.59 114.283 180.456 114.57 179.232ZM87.8216 174.807C90.6216 180.539 95.5272 184.969 101.515 187.171C101.151 186.322 100.824 185.458 100.534 184.581C99.8616 182.53 99.326 180.435 98.9309 178.313C95.1143 177.54 91.3904 176.365 87.8216 174.807ZM132.182 174.807C128.651 176.349 124.933 177.53 121.066 178.313C120.673 180.437 120.137 182.532 119.463 184.584C119.167 185.479 118.84 186.348 118.482 187.168C124.472 184.967 129.38 180.537 132.182 174.804V174.807ZM116.093 160.519C112.048 161.052 107.952 161.052 103.907 160.519C103.731 164.661 103.877 168.81 104.342 172.929C108.102 173.358 111.898 173.358 115.658 172.929C116 169.965 116.17 166.984 116.167 164C116.167 162.816 116.142 161.657 116.093 160.516V160.519ZM87.0847 154.849C85.5772 158.619 85.0264 162.703 85.4814 166.738C89.4081 168.992 93.6282 170.69 98.0213 171.785C97.6422 167.631 97.5659 163.454 97.7931 159.289C94.0506 158.266 90.4526 156.774 87.0847 154.849ZM132.915 154.849C129.547 156.774 125.949 158.266 122.207 159.289C122.434 163.454 122.358 167.631 121.979 171.785C126.371 170.69 130.59 168.991 134.516 166.738C134.97 162.704 134.419 158.621 132.912 154.852L132.915 154.849ZM110.049 139.37L110.015 139.364L109.954 139.373L109.837 139.42C109.442 139.67 109.097 139.991 108.819 140.366C108.017 141.384 107.16 143.043 106.383 145.367C105.551 147.859 104.879 150.917 104.432 154.368C108.126 154.881 111.874 154.881 115.569 154.368C115.121 150.914 114.446 147.859 113.617 145.367C112.84 143.043 111.983 141.381 111.181 140.366C110.926 140.018 110.613 139.715 110.256 139.472L110.049 139.37ZM101.515 140.832C96.9344 142.515 92.9544 145.516 90.0755 149.456C92.6748 150.948 95.459 152.157 98.3851 153.042C98.8784 149.453 99.6092 146.188 100.534 143.416C100.833 142.518 101.16 141.652 101.515 140.832ZM118.485 140.832C118.84 141.652 119.164 142.518 119.466 143.416C120.391 146.191 121.122 149.453 121.615 153.042C124.512 152.166 127.3 150.963 129.925 149.456C127.046 145.516 123.066 142.515 118.485 140.832Z" fill="#FF0000"/>
</g>
<path d="M93 90C90.8136 87.8333 86.56 81.4 87.037 73C89.0247 75 93 81.2 93 90Z" fill="#FF0000"/>
<path d="M132.031 73C130.198 75.1667 126.631 81.6 127.031 90C128.698 88 132.031 81.8 132.031 73Z" fill="#FF0000"/>
<defs>
<clipPath id="clip0_1_85">
<rect width="74" height="74" fill="white" transform="translate(73 127)"/>
</clipPath>
</defs>
</svg>
