<svg xmlns="http://www.w3.org/2000/svg" xmlns:xlink="http://www.w3.org/1999/xlink" width="221" height="195" fill="none"><path id="e" stroke="#222" stroke-linecap="round" stroke-width="9" d="M99.82 189c-33.137 0-60-26.863-60-60s26.863-60 60-60"/><path stroke="#222" stroke-linecap="round" stroke-width="9" d="M85.819 64c-33.137 0-54.651 20.526-62 50-6.557 26.303.7 54.3 23.5 65.5"/><path stroke="#222" stroke-linecap="round" stroke-width="9" d="M84.818 57c-42.526 0-67.22 15.506-77 50-4.963 17.507-3 30.5 3 46.5"/><path id="b" stroke="#222" stroke-linecap="round" stroke-width="9" d="M120.82 189c33.137 0 60-26.863 60-60s-26.863-60-60-60"/><path stroke="#222" stroke-linecap="round" stroke-width="9" d="M134.822 64c33.137 0 54.651 20.526 61.999 50 6.557 26.303-.699 54.3-23.499 65.5"/><path stroke="#222" stroke-linecap="round" stroke-width="9" d="M135.822 57c42.526 0 67.221 15.506 77 50 4.964 17.507 3.001 30.5-3 46.5"/><path id="k" fill="#222" d="M54.189 139.419c.673-3.127 15.435-44.73 22.731-65.142l5.47-4.777 3.368 9.988c-5.893 16.503-18.016 50.377-19.363 53.851s0 3.764.842 3.474c7.437-8.106 23.236-25.449 26.94-29.965 3.705-4.517 6.876-1.882 7.998 0l6.735 9.12c.842 1.737 1.684 5.645-1.683 7.383-4.21 2.171-7.998-6.08-10.524-5.646s-21.467 27.36-31.57 32.137c-10.102 4.777-11.786-6.515-10.944-10.423"/><path id="h" fill="#222" d="M166.811 139.419c-.674-3.127-15.435-44.73-22.731-65.142l-5.471-4.777-3.367 9.988c5.893 16.503 18.016 50.377 19.363 53.851s0 3.764-.842 3.474c-7.436-8.106-23.236-25.449-26.94-29.965-3.705-4.517-6.876-1.882-7.998 0l-6.735 9.12c-.842 1.737-1.684 5.645 1.683 7.383 4.21 2.171 7.998-6.08 10.524-5.646s21.467 27.36 31.569 32.137 11.787-6.515 10.945-10.423"/><path fill="#565656" d="M170 54c0 29.823-26.863 24-60 24s-60 5.823-60-24S76.863 0 110 0s60 24.177 60 54"/><path fill="#222" fill-rule="evenodd" d="M139.269 83.916c3.135-4.992 5.599-12.214 6.731-22.542C146 40.733 129.882 24 110 24S74 40.733 74 61.374c1.105 11.205 3.839 18.754 7.334 23.766C86.903 96.243 96.89 102.496 102.52 96a10.8 10.8 0 0 0 1.477-2.156C107.585 93.15 110 92 110 92s2.427 1.175 6.033 1.867c.358.697.841 1.41 1.467 2.133 5.737 6.62 15.999 0 21.499-11.5q.136-.287.27-.584" clip-rule="evenodd"/><path fill="red" d="M93 90c-2.186-2.167-6.44-8.6-5.963-17C89.025 75 93 81.2 93 90M132.031 73c-1.833 2.167-5.4 8.6-5 17 1.667-2 5-8.2 5-17"/><g id="a"><circle cx="111" cy="164" r="31" fill="#222"/><path fill="red" fill-rule="evenodd" d="M111 133c17.121 0 31 13.879 31 31s-13.879 31-31 31-31-13.879-31-31 13.879-31 31-31m4.594 46.314c-3.058.25-6.13.25-9.188 0q.433 1.848.961 3.416c.778 2.341 1.643 4.008 2.449 5.028.393.503.713.769.93.899l.158.087.093.025.099-.025.158-.084c.36-.243.675-.547.93-.898.806-1.023 1.671-2.691 2.449-5.032.35-1.045.673-2.185.961-3.416m-26.892-4.449a24.88 24.88 0 0 0 13.767 12.431 32 32 0 0 1-.986-2.604 49 49 0 0 1-1.612-6.302 55.4 55.4 0 0 1-11.17-3.525m44.599 0a55.3 55.3 0 0 1-11.175 3.525 49 49 0 0 1-1.612 6.306 30 30 0 0 1-.986 2.597 24.88 24.88 0 0 0 13.773-12.431zM117.126 160.5a46.9 46.9 0 0 1-12.252 0 81 81 0 0 0 .437 12.478c3.781.431 7.597.431 11.377 0A78 78 0 0 0 117.2 164q0-1.784-.074-3.503zm-29.165-5.701a24.73 24.73 0 0 0-1.612 11.954 49.3 49.3 0 0 0 12.608 5.074 86.5 86.5 0 0 1-.23-12.564 46.3 46.3 0 0 1-10.766-4.464m46.078 0a46.2 46.2 0 0 1-10.766 4.464 86.4 86.4 0 0 1-.23 12.564 49.3 49.3 0 0 0 12.605-5.074 24.73 24.73 0 0 0-1.612-11.951zm-22.989-15.562-.035-.006-.062.009-.117.047a3.8 3.8 0 0 0-1.023.951c-.806 1.023-1.668 2.691-2.449 5.029-.837 2.504-1.513 5.58-1.963 9.049 3.715.516 7.483.516 11.198 0-.45-3.472-1.129-6.545-1.963-9.049-.781-2.338-1.643-4.009-2.449-5.029a3.8 3.8 0 0 0-.93-.898zm-8.581 1.47a24.87 24.87 0 0 0-11.501 8.67 40 40 0 0 0 8.354 3.606c.496-3.609 1.231-6.892 2.161-9.679.301-.902.629-1.773.986-2.597m17.062 0c.357.824.682 1.695.986 2.597.93 2.79 1.665 6.07 2.161 9.679a40 40 0 0 0 8.354-3.606 24.87 24.87 0 0 0-11.501-8.67" clip-rule="evenodd"/></g><animateTransform xlink:href="#a" fill="freeze" attributeName="transform" begin="0.05s" dur="2.5s" from="360 111 164" repeatCount="indefinite" to="0 111 164" type="rotate"/><animate xlink:href="#b" id="d" fill="freeze" attributeName="d" attributeType="XML" begin="c.end;0.2s" dur="0.2s" from="M120.82 189C153.957 189 180.82 162.137 180.82 129C180.82 95.8629 153.957 69 120.82 69" repeatCount="1" to="M130.82 179C163.957 179 180.82 162.137 180.82 129C180.82 95.8629 153.957 69 120.82 69"/><animate xlink:href="#b" id="c" fill="freeze" attributeName="d" attributeType="XML" begin="d.end + 0.1s" dur="0.2s" from="M130.82 179C163.957 179 180.82 162.137 180.82 129C180.82 95.8629 153.957 69 120.82 69" repeatCount="1" to="M120.82 189C153.957 189 180.82 162.137 180.82 129C180.82 95.8629 153.957 69 120.82 69"/><animate xlink:href="#e" id="g" fill="freeze" attributeName="d" attributeType="XML" begin="f.end;0.1s" dur="0.2s" from="M99.8203 189C66.6832 189 39.8203 162.137 39.8203 129C39.8203 95.8629 66.6832 69 99.8203 69" repeatCount="1" to="M89.8203 179C56.6832 179 39.8203 162.137 39.8203 129C39.8203 95.8629 66.6832 69 99.8203 69"/><animate xlink:href="#e" id="f" fill="freeze" attributeName="d" attributeType="XML" begin="g.end + 0.1s" dur="0.2s" from="M89.8203 179C56.6832 179 39.8203 162.137 39.8203 129C39.8203 95.8629 66.6832 69 99.8203 69" repeatCount="1" to="M99.8203 189C66.6832 189 39.8203 162.137 39.8203 129C39.8203 95.8629 66.6832 69 99.8203 69"/><animate xlink:href="#h" id="j" fill="freeze" attributeName="d" attributeType="XML" begin="i.end;0s" dur="0.2s" from="M166.811 139.419C166.137 136.292 151.376 94.6882 144.08 74.2771L138.609 69.5L135.242 79.4884C141.135 95.991 153.258 129.865 154.605 133.339C155.952 136.813 154.605 137.103 153.763 136.813C146.327 128.707 130.527 111.364 126.823 106.848C123.118 102.331 119.947 104.966 118.825 106.848L112.09 115.968C111.248 117.705 110.406 121.613 113.773 123.351C117.983 125.522 121.771 117.271 124.297 117.705C126.823 118.139 145.764 145.065 155.866 149.842C165.969 154.619 167.653 143.327 166.811 139.419Z" repeatCount="1" to="M166.811 139.419C166.137 136.292 151.376 94.6882 144.08 74.2771L138.609 69.5L135.242 79.4884C141.135 95.991 153.258 129.865 154.605 133.339C155.952 136.813 154.605 137.103 153.763 136.813C146.327 128.707 136.527 122.364 132.823 117.848C129.118 113.331 125.947 115.966 124.825 117.848L118.09 126.968C117.248 128.705 116.406 132.613 119.773 134.351C123.983 136.522 127.771 128.271 130.297 128.705C132.823 129.139 145.764 145.065 155.866 149.842C165.969 154.619 167.653 143.327 166.811 139.419Z"/><animate xlink:href="#h" id="i" fill="freeze" attributeName="d" attributeType="XML" begin="j.end + 0.1s" dur="0.2s" from="M166.811 139.419C166.137 136.292 151.376 94.6882 144.08 74.2771L138.609 69.5L135.242 79.4884C141.135 95.991 153.258 129.865 154.605 133.339C155.952 136.813 154.605 137.103 153.763 136.813C146.327 128.707 136.527 122.364 132.823 117.848C129.118 113.331 125.947 115.966 124.825 117.848L118.09 126.968C117.248 128.705 116.406 132.613 119.773 134.351C123.983 136.522 127.771 128.271 130.297 128.705C132.823 129.139 145.764 145.065 155.866 149.842C165.969 154.619 167.653 143.327 166.811 139.419Z" repeatCount="1" to="M166.811 139.419C166.137 136.292 151.376 94.6882 144.08 74.2771L138.609 69.5L135.242 79.4884C141.135 95.991 153.258 129.865 154.605 133.339C155.952 136.813 154.605 137.103 153.763 136.813C146.327 128.707 130.527 111.364 126.823 106.848C123.118 102.331 119.947 104.966 118.825 106.848L112.09 115.968C111.248 117.705 110.406 121.613 113.773 123.351C117.983 125.522 121.771 117.271 124.297 117.705C126.823 118.139 145.764 145.065 155.866 149.842C165.969 154.619 167.653 143.327 166.811 139.419Z"/><animate xlink:href="#k" id="m" fill="freeze" attributeName="d" attributeType="XML" begin="l.end;0.8s" dur="0.2s" from="M54.189 139.419C54.8625 136.292 69.6237 94.6882 76.9201 74.2771L82.3908 69.5L85.7584 79.4884C79.8652 95.991 67.7419 129.865 66.3949 133.339C65.0479 136.813 66.3949 137.103 67.2368 136.813C74.6735 128.707 90.473 111.364 94.1773 106.848C97.8816 102.331 101.053 104.966 102.175 106.848L108.91 115.968C109.752 117.705 110.594 121.613 107.227 123.351C103.017 125.522 99.2287 117.271 96.703 117.705C94.1773 118.139 75.2363 145.065 65.1336 149.842C55.0309 154.619 53.3471 143.327 54.189 139.419Z" repeatCount="1" to="M54.189 139.419C54.8625 136.292 69.6237 94.6882 76.9201 74.2771L82.3908 69.5L85.7584 79.4884C79.8652 95.991 67.7419 129.865 66.3949 133.339C65.0479 136.813 66.3949 137.103 67.2368 136.813C74.6735 128.707 85.473 122.364 89.1773 117.848C92.8816 113.331 96.0528 115.966 97.1753 117.848L103.91 126.968C104.752 128.705 105.594 132.613 102.227 134.351C98.0172 136.522 94.2287 128.271 91.703 128.705C89.1773 129.139 75.2363 145.065 65.1336 149.842C55.0309 154.619 53.3471 143.327 54.189 139.419Z"/><animate xlink:href="#k" id="l" fill="freeze" attributeName="d" attributeType="XML" begin="m.end + 0.1s" dur="0.2s" from="M54.189 139.419C54.8625 136.292 69.6237 94.6882 76.9201 74.2771L82.3908 69.5L85.7584 79.4884C79.8652 95.991 67.7419 129.865 66.3949 133.339C65.0479 136.813 66.3949 137.103 67.2368 136.813C74.6735 128.707 85.473 122.364 89.1773 117.848C92.8816 113.331 96.0528 115.966 97.1753 117.848L103.91 126.968C104.752 128.705 105.594 132.613 102.227 134.351C98.0172 136.522 94.2287 128.271 91.703 128.705C89.1773 129.139 75.2363 145.065 65.1336 149.842C55.0309 154.619 53.3471 143.327 54.189 139.419Z" repeatCount="1" to="M54.189 139.419C54.8625 136.292 69.6237 94.6882 76.9201 74.2771L82.3908 69.5L85.7584 79.4884C79.8652 95.991 67.7419 129.865 66.3949 133.339C65.0479 136.813 66.3949 137.103 67.2368 136.813C74.6735 128.707 90.473 111.364 94.1773 106.848C97.8816 102.331 101.053 104.966 102.175 106.848L108.91 115.968C109.752 117.705 110.594 121.613 107.227 123.351C103.017 125.522 99.2287 117.271 96.703 117.705C94.1773 118.139 75.2363 145.065 65.1336 149.842C55.0309 154.619 53.3471 143.327 54.189 139.419Z"/></svg>